<?xml version="1.0" standalone="no"?>
<!DOCTYPE svg PUBLIC "-//W3C//DTD SVG 20010904//EN"
 "http://www.w3.org/TR/2001/REC-SVG-20010904/DTD/svg10.dtd">
<svg version="1.0" xmlns="http://www.w3.org/2000/svg"
 width="30.000000pt" height="30.000000pt" viewBox="0 0 828.000000 678.000000"
 preserveAspectRatio="xMidYMid meet">

<g transform="translate(0.000000,678.000000) scale(0.100000,-0.100000)"
fill="#000000" stroke="none">
<path d="M3023 6020 c-158 -18 -283 -80 -404 -200 -97 -96 -154 -185 -200
-311 -133 -362 -72 -807 157 -1152 184 -277 440 -440 714 -454 171 -9 334 46
471 161 146 120 234 280 285 516 28 130 26 372 -4 510 -58 259 -170 476 -336
648 -203 211 -441 310 -683 282z m188 -124 c149 -32 280 -109 406 -239 214
-220 333 -520 335 -839 0 -68 -5 -152 -12 -188 -37 -208 -131 -384 -260 -488
-261 -209 -608 -159 -886 129 -68 71 -158 197 -202 284 -34 68 -90 240 -109
333 -20 105 -23 329 -4 417 35 168 105 316 194 411 149 160 336 223 538 180z"/>
<path d="M5275 6005 c-326 -73 -619 -369 -749 -756 -106 -316 -91 -672 39
-929 143 -283 391 -435 679 -417 388 24 750 372 880 846 36 130 47 210 47 349
0 408 -160 713 -446 852 -44 22 -107 46 -140 55 -72 18 -227 19 -310 0z m338
-129 c326 -123 500 -521 426 -971 -13 -79 -64 -244 -99 -323 -44 -97 -136
-230 -214 -311 -276 -286 -618 -338 -877 -134 -111 87 -206 242 -250 408 -30
113 -37 338 -15 468 42 246 149 465 310 635 119 125 267 215 407 247 94 22
226 13 312 -19z"/>
<path d="M1665 4178 c-129 -17 -225 -66 -326 -167 -55 -55 -86 -96 -112 -151
-59 -121 -70 -182 -64 -350 5 -168 25 -255 86 -385 114 -244 271 -410 485
-511 184 -87 361 -108 508 -61 190 61 318 204 379 422 41 147 27 364 -34 527
-130 344 -389 586 -699 651 -138 30 -163 33 -223 25z m250 -138 c246 -77 422
-239 546 -504 54 -116 79 -227 79 -356 0 -169 -42 -291 -134 -389 -62 -66
-106 -94 -186 -121 -183 -62 -456 20 -646 193 -71 65 -177 216 -224 319 -127
281 -98 590 71 759 56 56 133 100 206 119 59 15 209 4 288 -20z"/>
<path d="M6672 4179 c-240 -40 -471 -196 -615 -414 -135 -205 -188 -371 -188
-590 1 -317 167 -552 441 -621 178 -45 442 26 637 173 280 211 457 631 400
948 -65 358 -337 560 -675 504z m236 -126 c299 -74 426 -447 281 -824 -63
-162 -186 -332 -307 -421 -141 -104 -315 -163 -462 -156 -258 12 -440 229
-440 526 0 167 45 320 140 476 117 194 265 317 457 382 132 44 207 48 331 17z"/>
<path d="M4025 3704 c-130 -22 -252 -61 -380 -123 -197 -96 -340 -210 -495
-397 -129 -154 -189 -219 -282 -300 -121 -107 -207 -216 -273 -349 -82 -165
-106 -258 -112 -440 -7 -211 23 -356 110 -530 107 -215 318 -411 541 -504 137
-57 217 -73 398 -78 190 -6 276 3 448 50 107 29 126 32 280 32 151 0 173 -3
264 -29 146 -42 254 -56 416 -56 209 1 357 33 513 111 196 99 377 280 474 474
87 173 117 319 110 530 -6 184 -31 279 -111 440 -67 133 -153 243 -274 349
-93 81 -153 146 -282 300 -242 292 -535 465 -885 521 -111 18 -351 18 -460 -1z
m495 -119 c237 -47 478 -174 647 -342 32 -32 97 -105 143 -163 47 -58 160
-179 251 -270 91 -91 182 -191 203 -223 131 -201 187 -455 152 -684 -49 -322
-271 -597 -595 -736 -99 -43 -213 -67 -341 -74 -136 -7 -250 7 -410 48 -223
58 -381 58 -605 0 -160 -42 -269 -55 -410 -48 -152 7 -262 35 -390 96 -222
106 -375 261 -480 484 -56 119 -77 219 -77 372 1 130 15 217 57 335 58 163
120 248 325 450 86 85 191 198 233 251 237 301 521 469 873 518 91 13 330 5
424 -14z"/>
</g>
</svg>
